<mxfile host="app.diagrams.net" agent="Mozilla/5.0 (Windows NT 10.0; Win64; x64) AppleWebKit/537.36 (KHTML, like Gecko) Chrome/140.0.0.0 Safari/537.36" version="28.2.5">
  <diagram name="Page-1" id="tJy8O6oTvKqeBBHxnaru">
    <mxGraphModel dx="1043" dy="570" grid="1" gridSize="10" guides="1" tooltips="1" connect="1" arrows="1" fold="1" page="1" pageScale="1" pageWidth="850" pageHeight="1100" math="0" shadow="0">
      <root>
        <mxCell id="0" />
        <mxCell id="1" parent="0" />
        <mxCell id="5VinsiJ6YzJo_JCMXYEi-1" value="" style="ellipse;shape=cloud;whiteSpace=wrap;html=1;fillColor=#b1ddf0;strokeColor=#10739e;" parent="1" vertex="1">
          <mxGeometry x="80" y="160" width="220" height="160" as="geometry" />
        </mxCell>
        <mxCell id="5VinsiJ6YzJo_JCMXYEi-2" value="&lt;b&gt;Google Cloud&lt;/b&gt;" style="text;html=1;align=center;verticalAlign=middle;whiteSpace=wrap;rounded=0;fontFamily=Helvetica;fontSize=12;fontColor=light-dark(#000000,#000000);" parent="1" vertex="1">
          <mxGeometry x="140" y="180" width="60" height="30" as="geometry" />
        </mxCell>
        <mxCell id="5VinsiJ6YzJo_JCMXYEi-3" value="&lt;b&gt;AWS&lt;/b&gt;" style="text;html=1;align=center;verticalAlign=middle;whiteSpace=wrap;rounded=0;fontFamily=Helvetica;fontSize=12;fontColor=light-dark(#000000,#000000);" parent="1" vertex="1">
          <mxGeometry x="110" y="210" width="60" height="30" as="geometry" />
        </mxCell>
        <mxCell id="5VinsiJ6YzJo_JCMXYEi-4" value="&lt;b&gt;NetFlix&lt;/b&gt;" style="text;html=1;align=center;verticalAlign=middle;whiteSpace=wrap;rounded=0;fontFamily=Helvetica;fontSize=12;fontColor=light-dark(#000000,#000000);" parent="1" vertex="1">
          <mxGeometry x="210" y="200" width="60" height="30" as="geometry" />
        </mxCell>
        <mxCell id="5VinsiJ6YzJo_JCMXYEi-5" value="&lt;b&gt;Twitter&lt;/b&gt;" style="text;html=1;align=center;verticalAlign=middle;whiteSpace=wrap;rounded=0;fontFamily=Helvetica;fontSize=12;fontColor=light-dark(#000000,#000000);" parent="1" vertex="1">
          <mxGeometry x="220" y="230" width="60" height="30" as="geometry" />
        </mxCell>
        <mxCell id="5VinsiJ6YzJo_JCMXYEi-6" value="&lt;b&gt;IBM&lt;/b&gt;" style="text;html=1;align=center;verticalAlign=middle;whiteSpace=wrap;rounded=0;fontFamily=Helvetica;fontSize=12;fontColor=light-dark(#000000,#000000);" parent="1" vertex="1">
          <mxGeometry x="160" y="210" width="60" height="30" as="geometry" />
        </mxCell>
        <mxCell id="5VinsiJ6YzJo_JCMXYEi-7" value="Chase Bank" style="text;html=1;align=center;verticalAlign=middle;whiteSpace=wrap;rounded=0;fontFamily=Helvetica;fontSize=12;fontColor=light-dark(#000000,#000000);fontStyle=1" parent="1" vertex="1">
          <mxGeometry x="100" y="250" width="60" height="30" as="geometry" />
        </mxCell>
        <mxCell id="5VinsiJ6YzJo_JCMXYEi-8" value="&lt;b&gt;Walmart&lt;/b&gt;" style="text;html=1;align=center;verticalAlign=middle;whiteSpace=wrap;rounded=0;fontFamily=Helvetica;fontSize=12;fontColor=light-dark(#000000,#000000);" parent="1" vertex="1">
          <mxGeometry x="150" y="230" width="60" height="30" as="geometry" />
        </mxCell>
        <mxCell id="5VinsiJ6YzJo_JCMXYEi-9" value="&lt;b&gt;Uber&lt;/b&gt;" style="text;html=1;align=center;verticalAlign=middle;whiteSpace=wrap;rounded=0;fontFamily=Helvetica;fontSize=12;fontColor=light-dark(#000000,#000000);" parent="1" vertex="1">
          <mxGeometry x="200" y="260" width="60" height="30" as="geometry" />
        </mxCell>
        <mxCell id="5VinsiJ6YzJo_JCMXYEi-10" value="&lt;b&gt;LinkedIn&lt;/b&gt;" style="text;html=1;align=center;verticalAlign=middle;whiteSpace=wrap;rounded=0;fillColor=none;fontColor=light-dark(#000000,#000000);" parent="1" vertex="1">
          <mxGeometry x="150" y="260" width="60" height="30" as="geometry" />
        </mxCell>
        <mxCell id="5VinsiJ6YzJo_JCMXYEi-12" value="" style="rounded=1;whiteSpace=wrap;html=1;fillColor=#bac8d3;strokeColor=#23445d;" parent="1" vertex="1">
          <mxGeometry x="140" y="380" width="120" height="60" as="geometry" />
        </mxCell>
        <mxCell id="5VinsiJ6YzJo_JCMXYEi-13" value="&lt;b&gt;Hadoop&amp;nbsp; Cluster&lt;/b&gt;" style="text;html=1;align=center;verticalAlign=middle;whiteSpace=wrap;rounded=0;" parent="1" vertex="1">
          <mxGeometry x="170" y="395" width="60" height="30" as="geometry" />
        </mxCell>
        <mxCell id="5VinsiJ6YzJo_JCMXYEi-15" value="" style="curved=1;endArrow=classic;html=1;rounded=0;exitX=0.461;exitY=0.945;exitDx=0;exitDy=0;exitPerimeter=0;entryX=0.5;entryY=0;entryDx=0;entryDy=0;strokeColor=light-dark(#000000,#00CC66);" parent="1" source="5VinsiJ6YzJo_JCMXYEi-1" target="5VinsiJ6YzJo_JCMXYEi-12" edge="1">
          <mxGeometry width="50" height="50" relative="1" as="geometry">
            <mxPoint x="290" y="440" as="sourcePoint" />
            <mxPoint x="340" y="390" as="targetPoint" />
            <Array as="points">
              <mxPoint x="200" y="340" />
            </Array>
          </mxGeometry>
        </mxCell>
        <mxCell id="5VinsiJ6YzJo_JCMXYEi-16" value="" style="curved=1;endArrow=classic;html=1;rounded=0;entryX=0.767;entryY=0.872;entryDx=0;entryDy=0;entryPerimeter=0;" parent="1" target="5VinsiJ6YzJo_JCMXYEi-1" edge="1">
          <mxGeometry width="50" height="50" relative="1" as="geometry">
            <mxPoint x="260" y="400" as="sourcePoint" />
            <mxPoint x="310" y="350" as="targetPoint" />
            <Array as="points">
              <mxPoint x="330" y="410" />
            </Array>
          </mxGeometry>
        </mxCell>
        <mxCell id="5VinsiJ6YzJo_JCMXYEi-17" value="&lt;font style=&quot;font-size: 9px;&quot;&gt;Some batch request&amp;nbsp;&lt;/font&gt;" style="text;html=1;align=center;verticalAlign=middle;whiteSpace=wrap;rounded=0;fontStyle=1" parent="1" vertex="1">
          <mxGeometry x="140" y="330" width="60" height="30" as="geometry" />
        </mxCell>
        <mxCell id="5VinsiJ6YzJo_JCMXYEi-18" value="&lt;font style=&quot;font-size: 9px;&quot;&gt;&lt;b style=&quot;&quot;&gt;Works it&#39;s magic&lt;/b&gt;&lt;/font&gt;" style="text;html=1;align=center;verticalAlign=middle;whiteSpace=wrap;rounded=0;" parent="1" vertex="1">
          <mxGeometry x="170" y="440" width="60" height="30" as="geometry" />
        </mxCell>
        <mxCell id="5VinsiJ6YzJo_JCMXYEi-19" value="&lt;b style=&quot;&quot;&gt;&lt;font style=&quot;font-size: 9px;&quot;&gt;Spits out the result, table, etc&lt;/font&gt;&lt;/b&gt;" style="text;html=1;align=center;verticalAlign=middle;whiteSpace=wrap;rounded=0;" parent="1" vertex="1">
          <mxGeometry x="270" y="310" width="60" height="30" as="geometry" />
        </mxCell>
        <mxCell id="5VinsiJ6YzJo_JCMXYEi-20" value="" style="line;strokeWidth=2;direction=south;html=1;" parent="1" vertex="1">
          <mxGeometry x="340" y="140" width="10" height="340" as="geometry" />
        </mxCell>
        <mxCell id="Hw-Q41xaqOg7-hkeyFEq-1" value="" style="rounded=1;whiteSpace=wrap;html=1;" vertex="1" parent="1">
          <mxGeometry x="370" y="170" width="300" height="290" as="geometry" />
        </mxCell>
        <mxCell id="Hw-Q41xaqOg7-hkeyFEq-2" value="&lt;font size=&quot;1&quot;&gt;YARN&lt;/font&gt;" style="html=1;dropTarget=0;whiteSpace=wrap;" vertex="1" parent="1">
          <mxGeometry x="400" y="210" width="90" height="60" as="geometry" />
        </mxCell>
        <mxCell id="Hw-Q41xaqOg7-hkeyFEq-3" value="" style="shape=module;jettyWidth=8;jettyHeight=4;" vertex="1" parent="Hw-Q41xaqOg7-hkeyFEq-2">
          <mxGeometry x="1" width="12" height="20" relative="1" as="geometry">
            <mxPoint x="-19" y="7" as="offset" />
          </mxGeometry>
        </mxCell>
        <mxCell id="Hw-Q41xaqOg7-hkeyFEq-4" value="" style="curved=1;endArrow=classic;html=1;rounded=0;exitX=0.461;exitY=0.945;exitDx=0;exitDy=0;exitPerimeter=0;entryX=0.5;entryY=0;entryDx=0;entryDy=0;strokeColor=light-dark(#000000,#00CC66);" edge="1" parent="1" target="Hw-Q41xaqOg7-hkeyFEq-2">
          <mxGeometry width="50" height="50" relative="1" as="geometry">
            <mxPoint x="440" y="121" as="sourcePoint" />
            <mxPoint x="459" y="190" as="targetPoint" />
            <Array as="points">
              <mxPoint x="459" y="150" />
            </Array>
          </mxGeometry>
        </mxCell>
        <mxCell id="Hw-Q41xaqOg7-hkeyFEq-5" value="&lt;font style=&quot;font-weight: normal;&quot; size=&quot;1&quot;&gt;&quot;Get me all purchases the shopper has made since 2015. I want a table of rating, and total&quot;&lt;/font&gt;" style="text;html=1;align=center;verticalAlign=middle;whiteSpace=wrap;rounded=0;fontStyle=1" vertex="1" parent="1">
          <mxGeometry x="450" y="130" width="190" height="30" as="geometry" />
        </mxCell>
        <mxCell id="Hw-Q41xaqOg7-hkeyFEq-7" value="&lt;font style=&quot;font-size: 8px;&quot;&gt;Figures out where to run containers based on the storage of nodes and availability of resources.&lt;/font&gt;" style="text;html=1;align=center;verticalAlign=middle;whiteSpace=wrap;rounded=0;" vertex="1" parent="1">
          <mxGeometry x="500" y="185" width="150" height="80" as="geometry" />
        </mxCell>
        <mxCell id="Hw-Q41xaqOg7-hkeyFEq-8" value="&lt;font size=&quot;1&quot;&gt;MapReduce Job&lt;/font&gt;" style="html=1;dropTarget=0;whiteSpace=wrap;" vertex="1" parent="1">
          <mxGeometry x="400" y="310" width="90" height="30" as="geometry" />
        </mxCell>
        <mxCell id="Hw-Q41xaqOg7-hkeyFEq-10" value="" style="curved=1;endArrow=classic;html=1;rounded=0;exitX=0.5;exitY=1;exitDx=0;exitDy=0;entryX=0.5;entryY=0;entryDx=0;entryDy=0;" edge="1" parent="1" source="Hw-Q41xaqOg7-hkeyFEq-16" target="Hw-Q41xaqOg7-hkeyFEq-8">
          <mxGeometry width="50" height="50" relative="1" as="geometry">
            <mxPoint x="430" y="260" as="sourcePoint" />
            <mxPoint x="435" y="349" as="targetPoint" />
            <Array as="points">
              <mxPoint x="430" y="290" />
            </Array>
          </mxGeometry>
        </mxCell>
        <mxCell id="Hw-Q41xaqOg7-hkeyFEq-11" style="edgeStyle=orthogonalEdgeStyle;rounded=0;orthogonalLoop=1;jettySize=auto;html=1;exitX=0.5;exitY=1;exitDx=0;exitDy=0;" edge="1" parent="1" source="Hw-Q41xaqOg7-hkeyFEq-8" target="Hw-Q41xaqOg7-hkeyFEq-8">
          <mxGeometry relative="1" as="geometry" />
        </mxCell>
        <mxCell id="Hw-Q41xaqOg7-hkeyFEq-12" value="&lt;font style=&quot;font-size: 8px;&quot;&gt;The job has been split up into pieces, and is processed in parallel&lt;/font&gt;" style="text;html=1;align=center;verticalAlign=middle;whiteSpace=wrap;rounded=0;" vertex="1" parent="1">
          <mxGeometry x="500" y="265" width="150" height="80" as="geometry" />
        </mxCell>
        <mxCell id="Hw-Q41xaqOg7-hkeyFEq-13" value="&lt;font size=&quot;1&quot;&gt;HDFS&lt;/font&gt;" style="html=1;dropTarget=0;whiteSpace=wrap;" vertex="1" parent="1">
          <mxGeometry x="550" y="345" width="90" height="30" as="geometry" />
        </mxCell>
        <mxCell id="Hw-Q41xaqOg7-hkeyFEq-14" value="" style="curved=1;endArrow=classic;html=1;rounded=0;exitX=1;exitY=0.5;exitDx=0;exitDy=0;entryX=0;entryY=0.5;entryDx=0;entryDy=0;" edge="1" parent="1" source="Hw-Q41xaqOg7-hkeyFEq-8" target="Hw-Q41xaqOg7-hkeyFEq-13">
          <mxGeometry width="50" height="50" relative="1" as="geometry">
            <mxPoint x="440" y="420" as="sourcePoint" />
            <mxPoint x="440" y="470" as="targetPoint" />
            <Array as="points">
              <mxPoint x="510" y="350" />
            </Array>
          </mxGeometry>
        </mxCell>
        <mxCell id="Hw-Q41xaqOg7-hkeyFEq-16" value="&lt;font size=&quot;1&quot;&gt;App Master&lt;/font&gt;" style="html=1;dropTarget=0;whiteSpace=wrap;" vertex="1" parent="1">
          <mxGeometry x="400" y="250" width="60" height="20" as="geometry" />
        </mxCell>
        <mxCell id="Hw-Q41xaqOg7-hkeyFEq-17" value="" style="curved=1;endArrow=classic;html=1;rounded=0;exitX=0.381;exitY=1.025;exitDx=0;exitDy=0;entryX=0.25;entryY=1;entryDx=0;entryDy=0;exitPerimeter=0;" edge="1" parent="1" source="Hw-Q41xaqOg7-hkeyFEq-8" target="Hw-Q41xaqOg7-hkeyFEq-16">
          <mxGeometry width="50" height="50" relative="1" as="geometry">
            <mxPoint x="390" y="300" as="sourcePoint" />
            <mxPoint x="405" y="340" as="targetPoint" />
            <Array as="points">
              <mxPoint x="415" y="370" />
              <mxPoint x="370" y="320" />
            </Array>
          </mxGeometry>
        </mxCell>
        <mxCell id="Hw-Q41xaqOg7-hkeyFEq-18" value="" style="curved=1;endArrow=classic;html=1;rounded=0;" edge="1" parent="1" source="Hw-Q41xaqOg7-hkeyFEq-2">
          <mxGeometry width="50" height="50" relative="1" as="geometry">
            <mxPoint x="380" y="130" as="sourcePoint" />
            <mxPoint x="420" y="120" as="targetPoint" />
            <Array as="points">
              <mxPoint x="410" y="159" />
            </Array>
          </mxGeometry>
        </mxCell>
        <mxCell id="Hw-Q41xaqOg7-hkeyFEq-19" value="&lt;font style=&quot;font-size: 9px;&quot;&gt;The storage component of Hadoop&lt;/font&gt;" style="text;html=1;align=center;verticalAlign=middle;whiteSpace=wrap;rounded=0;" vertex="1" parent="1">
          <mxGeometry x="565" y="390" width="60" height="30" as="geometry" />
        </mxCell>
        <mxCell id="Hw-Q41xaqOg7-hkeyFEq-21" value="&lt;font style=&quot;font-size: 9px;&quot;&gt;Result&lt;/font&gt;" style="text;html=1;align=center;verticalAlign=middle;whiteSpace=wrap;rounded=0;" vertex="1" parent="1">
          <mxGeometry x="365" y="130" width="60" height="30" as="geometry" />
        </mxCell>
      </root>
    </mxGraphModel>
  </diagram>
</mxfile>
